<svg width="297" height="297" xmlns="http://www.w3.org/2000/svg" xml:space="preserve" version="1.1">

 <g>
  <title>Layer 1</title>
  <g id="svg_1">
   <path fill="#007bff" id="svg_2" d="m167.959,224.87l-98.923,0c-3.899,0 -7.059,3.16 -7.059,7.059l0,49.461c0,3.899 3.16,7.059 7.059,7.059l98.923,0c3.899,0 7.059,-3.16 7.059,-7.059l0,-49.46c0,-3.899 -3.16,-7.06 -7.059,-7.06z"/>
   <path fill="#007bff" id="svg_3" d="m289.941,224.87l-98.924,0c-3.899,0 -7.059,3.16 -7.059,7.059l0,49.461c0,3.899 3.16,7.059 7.059,7.059l98.924,0c3.899,0 7.059,-3.16 7.059,-7.059l0,-49.46c0,-3.899 -3.16,-7.06 -7.059,-7.06z"/>
   <path fill="#007bff" id="svg_4" d="m69.036,144.236l98.923,0c3.899,0 7.059,-3.16 7.059,-7.059l0,-49.46c0,-3.899 -3.16,-7.059 -7.059,-7.059l-98.923,0c-3.899,0 -7.059,3.16 -7.059,7.059l0,49.46c0,3.898 3.16,7.059 7.059,7.059z"/>
   <path fill="#007bff" id="svg_5" d="m289.941,80.656l-98.924,0c-3.899,0 -7.059,3.16 -7.059,7.059l0,49.46c0,3.899 3.16,7.059 7.059,7.059l98.924,0c3.899,0 7.059,-3.16 7.059,-7.059l0,-49.46c0,-3.898 -3.16,-7.059 -7.059,-7.059z"/>
   <path fill="#007bff" id="svg_6" d="m128.508,72.129l98.924,0c3.899,0 7.059,-3.16 7.059,-7.059l0,-49.46c0,-3.899 -3.16,-7.059 -7.059,-7.059l-98.924,0c-3.899,0 -7.059,3.16 -7.059,7.059l0,49.46c0,3.898 3.16,7.059 7.059,7.059z"/>
   <path fill="#007bff" id="svg_7" d="m123.495,159.822l0,49.462c0,3.899 3.16,7.059 7.059,7.059l98.923,0c3.899,0 7.059,-3.16 7.059,-7.059l0,-49.462c0,-3.899 -3.16,-7.059 -7.059,-7.059l-98.923,0c-3.899,-0.001 -7.059,3.16 -7.059,7.059z"/>
   <path fill="#007bff" id="svg_8" d="m113.042,209.284l0,-49.462c0,-3.899 -3.16,-7.059 -7.059,-7.059l-98.924,0c-3.899,0 -7.059,3.16 -7.059,7.059l0,49.462c0,3.899 3.16,7.059 7.059,7.059l98.924,0c3.899,0.001 7.059,-3.16 7.059,-7.059z"/>
  </g>
  <g id="svg_9"/>
  <g id="svg_10"/>
  <g id="svg_11"/>
  <g id="svg_12"/>
  <g id="svg_13"/>
  <g id="svg_14"/>
  <g id="svg_15"/>
  <g id="svg_16"/>
  <g id="svg_17"/>
  <g id="svg_18"/>
  <g id="svg_19"/>
  <g id="svg_20"/>
  <g id="svg_21"/>
  <g id="svg_22"/>
  <g id="svg_23"/>
 </g>
</svg>